<svg xmlns="http://www.w3.org/2000/svg" viewBox="0 0 16.47 20.53"><defs><style>.cls-1{opacity:0.8;}.cls-2{fill:#fff;}</style></defs><g id="Слой_2" data-name="Слой 2"><g id="Слой_1-2" data-name="Слой 1"><g class="cls-1"><path class="cls-2" d="M11.63,1.46A4.48,4.48,0,0,0,9.47.93,4.72,4.72,0,0,0,5.41,3.19a12.58,12.58,0,0,0-1.84,4c-.15.94-.25,1.64-.3,2.11s-.1,1.18-.1,1.73a10.86,10.86,0,0,0,2,6.4,4.8,4.8,0,0,0,4,2.26,6.9,6.9,0,0,0,.75-.05,1.47,1.47,0,0,0,.73-.35,2.17,2.17,0,0,0,.55-.63,4.26,4.26,0,0,0,.38-1.27,20.86,20.86,0,0,0,.12-2.72c-.05-1.06-.43-1.53-1.15-1.41h-2Q8,13.3,8,13a.23.23,0,0,1,.05-.15c.06-.13.35-.2.85-.2h6.85c.47,0,.7.12.7.33a.29.29,0,0,1-.07.17,8.17,8.17,0,0,1-1.28.18c-.45,0-.63.24-.53.62v4.87a11.06,11.06,0,0,1-5.67,1.71A9.4,9.4,0,0,1,4.2,19.22a7.65,7.65,0,0,1-2.91-3A11,11,0,0,1,0,10.29,11.42,11.42,0,0,1,.44,7.81,12.13,12.13,0,0,1,2.7,3.46a9.34,9.34,0,0,1,4-2.93,8.41,8.41,0,0,1,7.35.72,2.78,2.78,0,0,1,.73,2.26,7.09,7.09,0,0,1-.1,1.16A8.34,8.34,0,0,0,11.63,1.46Z"/><path class="cls-2" d="M10,2.44a.36.36,0,0,1,.38.41v9a19.3,19.3,0,0,0,3.66-.24,2,2,0,0,0,1.35-.95v1a.47.47,0,0,1-.44.52h-6V2.44Z"/></g></g></g></svg>