<svg xmlns="http://www.w3.org/2000/svg" viewBox="0 0 57.87867 50.46559"><g id="Слой_2" data-name="Слой 2"><g id="Слой_1-2" data-name="Слой 1"><path d="M56.69764,9.74083A15.44962,15.44962,0,0,0,32.39321,3.6091c-1.23966,1.013-2.35055,2.18346-3.49287,3.25471C27.7485,5.77971,26.661,4.66829,25.48316,3.66267A15.722,15.722,0,0,0,6.83135,2.60191C.33414,6.9814-1.45742,14.76255,1.15359,22.05766A27.36165,27.36165,0,0,0,8.10537,32.20247c3.34245,3.29326,6.816,6.46075,10.342,9.55843,3.39952,2.98661,6.93849,5.81446,10.40739,8.70469.228-.16407.39827-.26912.54879-.39737,5.51094-4.69655,11.08127-9.32593,16.50787-14.11812a42.25152,42.25152,0,0,0,9.33173-10.86243C57.96089,20.21016,58.80034,15.03446,56.69764,9.74083Z" style="fill:#aa8334"/><path d="M28.8547,50.46559c-3.46887-2.89024-7.00785-5.71809-10.40736-8.7047-3.52593-3.09767-6.99949-6.26516-10.34194-9.55842A27.3609,27.3609,0,0,1,1.15362,22.05765c-2.611-7.2951-.81946-15.07625,5.6777-19.45574A15.722,15.722,0,0,1,25.48316,3.66267c1.17784,1.00562,2.26536,2.117,3.41716,3.20114,1.14233-1.07125,2.25325-2.24175,3.49288-3.25471A15.44965,15.44965,0,0,1,56.69766,9.74083c2.10264,5.29362,1.26324,10.46933-1.45456,15.34684a42.2507,42.2507,0,0,1-9.33172,10.86244c-5.42656,4.79218-10.9969,9.42156-16.50786,14.11811C29.253,50.19647,29.08275,50.30152,28.8547,50.46559ZM28.82808,12.002c-.27016-.31016-.57473-.69876-.91893-1.04835A51.97293,51.97293,0,0,0,22.93224,6.0022a12.0657,12.0657,0,0,0-17.88745,3.367A12.69051,12.69051,0,0,0,3.866,19.14987a20.69535,20.69535,0,0,0,5.936,9.90632c3.55141,3.54736,7.28819,6.91453,11.03262,10.26144,2.60524,2.32867,5.35776,4.49259,8.05534,6.73916,1.04173-.8514,2.01693-1.63969,2.98276-2.43927A174.41,174.41,0,0,0,47.33746,29.82711c3.19275-3.35544,6.01258-6.94483,6.81488-11.71828A12.12552,12.12552,0,0,0,33.957,6.71052C32.15375,8.3512,30.55092,10.21215,28.82808,12.002Z" style="fill:#fff"/></g></g></svg>